<svg width="105" height="107" viewBox="0 0 105 107" fill="none" xmlns="http://www.w3.org/2000/svg">
<path d="M58.9703 81.947C58.9273 81.9589 58.8907 81.9874 58.8687 82.0261C58.8467 82.0649 58.841 82.1109 58.8529 82.1539C58.8647 82.1969 58.8932 82.2334 58.932 82.2555C58.9708 82.2775 59.0167 82.2832 59.0597 82.2713C60.4727 81.9619 61.7973 81.3369 62.9345 80.443C67.2566 77.2503 67.033 72.7213 69.4931 68.5782C71.4613 65.4191 73.189 65.7825 73.0548 65.3744C73.0498 65.3582 73.0415 65.3433 73.0305 65.3305C73.0195 65.3177 73.006 65.3073 72.9908 65.2999C72.9756 65.2926 72.959 65.2885 72.9421 65.2878C72.9252 65.2871 72.9084 65.2899 72.8927 65.2961C65.1543 68.1421 69.5267 78.2903 58.9703 81.947ZM90.2873 72.0057C90.5053 71.7764 90.7234 71.536 90.9358 71.2956C92.5797 69.2995 93.7315 66.2075 93.6197 63.9318C93.6168 63.9073 93.6073 63.884 93.5921 63.8645C93.5769 63.8451 93.5566 63.8302 93.5335 63.8215C93.5104 63.8128 93.4853 63.8107 93.461 63.8154C93.4368 63.82 93.4143 63.8313 93.396 63.8479C93.2283 64.0101 93.698 64.9047 92.5182 67.7227C91.3999 70.3954 90.4214 71.0775 89.32 72.3244C88.3331 73.4637 87.5831 74.7882 87.1137 76.2205C86.6443 77.6528 86.4648 79.1642 86.5858 80.6666C86.5922 80.6982 86.6094 80.7266 86.6343 80.747C86.6593 80.7674 86.6905 80.7786 86.7228 80.7786C86.755 80.7786 86.7863 80.7674 86.8112 80.747C86.8362 80.7266 86.8534 80.6982 86.8598 80.6666C86.8214 79.067 87.1051 77.4759 87.6939 75.988C88.2827 74.5002 89.1646 73.1459 90.2873 72.0057ZM41.1955 47.8623C41.7546 47.4765 41.7155 46.2968 41.1955 45.8606C41.0484 45.742 40.877 45.6571 40.6935 45.6122C40.5099 45.5673 40.3187 45.5634 40.1335 45.6008C39.9482 45.6381 39.7735 45.7159 39.6217 45.8284C39.4699 45.941 39.3448 46.0856 39.2553 46.252C39.1515 46.5122 39.1328 46.7985 39.2019 47.0699C39.271 47.3413 39.4243 47.5839 39.6398 47.7627C39.8553 47.9416 40.1219 48.0476 40.4014 48.0655C40.6809 48.0834 40.9589 48.0123 41.1955 47.8623ZM39.6579 46.5819C39.8256 45.9445 40.9271 45.8551 41.0948 46.4925C41.2066 46.9286 41.1563 47.2361 40.9327 47.4039C40.7982 47.4874 40.6454 47.5367 40.4874 47.5475C40.3295 47.5582 40.1714 47.53 40.0269 47.4654C39.8756 47.3804 39.7571 47.2473 39.6902 47.0872C39.6233 46.9271 39.6119 46.7492 39.6579 46.5819ZM60.301 37.5184C60.2795 37.5169 60.258 37.5198 60.2377 37.5269C60.2173 37.5341 60.1987 37.5454 60.183 37.5601C60.1673 37.5748 60.1547 37.5926 60.1462 37.6123C60.1376 37.6321 60.1332 37.6534 60.1333 37.675C60.1333 38.2341 59.1883 38.7932 59.015 38.8491C58.9816 38.8573 58.9529 38.8784 58.9351 38.9077C58.9172 38.9371 58.9118 38.9723 58.9199 39.0057C58.9281 39.0391 58.9492 39.0678 58.9785 39.0856C59.0079 39.1035 59.0431 39.1089 59.0765 39.1007C60.547 38.7988 60.7707 37.5072 60.301 37.5184ZM58.3385 36.6629C58.2714 36.6238 57.975 36.4057 57.8688 36.3219C57.8688 36.2492 58.1316 35.3154 58.1819 35.1365C58.2322 34.9576 58.003 34.9128 57.9415 35.0582C57.7075 35.5115 57.5202 35.9873 57.3823 36.4784C57.4271 36.6406 58.2043 36.853 58.2602 36.853C58.2835 36.8562 58.3072 36.8516 58.3275 36.8398C58.3479 36.8281 58.3638 36.81 58.3728 36.7882C58.3817 36.7665 58.3832 36.7424 58.377 36.7197C58.3708 36.697 58.3572 36.6771 58.3385 36.6629ZM56.4933 33.666C56.4853 33.6176 56.4604 33.5737 56.423 33.5421C56.3856 33.5104 56.3382 33.493 56.2892 33.493C56.2402 33.493 56.1928 33.5104 56.1555 33.5421C56.1181 33.5737 56.0932 33.6176 56.0851 33.666C56.0639 34.0515 56.0639 34.4379 56.0851 34.8234C56.1202 34.8807 56.1733 34.9247 56.2362 34.9484C56.299 34.9721 56.368 34.9742 56.4322 34.9543C56.4963 34.9344 56.552 34.8937 56.5904 34.8386C56.6289 34.7835 56.6478 34.7171 56.6443 34.65C56.5668 34.3268 56.5163 33.9976 56.4933 33.666ZM60.4016 34.6445C60.33 34.3238 60.2795 33.9988 60.2507 33.6716C60.2507 33.6167 60.2289 33.5641 60.1901 33.5253C60.1513 33.4865 60.0987 33.4647 60.0438 33.4647C59.9889 33.4647 59.9363 33.4865 59.8975 33.5253C59.8587 33.5641 59.8369 33.6167 59.8369 33.6716C59.8166 34.044 59.8166 34.4174 59.8369 34.7898C59.8401 34.8331 59.8527 34.8752 59.8738 34.9131C59.895 34.951 59.9243 34.9837 59.9595 35.0091C59.9948 35.0344 60.0351 35.0517 60.0778 35.0597C60.1204 35.0677 60.1643 35.0662 60.2064 35.0554C60.2484 35.0446 60.2875 35.0247 60.321 34.9971C60.3545 34.9695 60.3815 34.9348 60.4002 34.8956C60.4188 34.8564 60.4286 34.8136 60.4288 34.7702C60.4291 34.7268 60.4198 34.6839 60.4016 34.6445Z" fill="black"/>
<path d="M104.159 27.0291C104.12 23.5457 102.952 22.1703 99.3451 22.2765C98.3163 22.2765 79.9712 22.461 78.6573 22.5057C77.7763 22.506 76.9048 22.6868 76.0964 23.0369C75.6324 23.2214 73.2057 24.4347 72.9373 25.0777C72.6466 25.5362 72.9877 38.5976 72.9373 41.2926C72.5489 41.0714 72.1495 40.8698 71.7408 40.6887C71.6669 40.3214 71.5102 39.9759 71.2825 39.6784C71.0547 39.3809 70.7621 39.1394 70.4268 38.9722C69.9124 38.7709 69.2527 39.0113 68.8725 38.6479C68.4922 38.2844 69.1744 38.0887 69.2471 37.5296C69.2448 37.1419 69.1998 36.7556 69.1129 36.3778C68.7759 34.351 68.3052 32.3486 67.7039 30.3839C67.2006 28.768 66.6751 27.3981 65.2269 26.5203C65.2269 23.8029 64.9529 7.87885 64.802 7.03456C64.6531 6.2013 64.2087 5.44969 63.5504 4.91767C62.892 4.38565 62.0639 4.10891 61.2179 4.13825C61.162 4.13825 22.6826 4.13825 22.6378 4.18298C21.1002 5.09996 20.6865 7.14638 20.5858 8.65604C20.5523 9.41087 21.212 24.6528 21.4748 29.4949C18.7519 29.5508 4.99721 29.9198 4.20883 30.3392C2.4252 30.7753 0.451463 32.0166 0.0656618 34.035C-0.174765 35.3322 0.31168 60.2527 0.473828 61.4325C0.589951 62.7068 1.15934 63.8972 2.07854 64.7873C3.07938 65.6651 4.44367 65.8273 5.6458 65.872L31.159 65.3912C28.6653 71.0384 25.7913 79.0452 23.8903 84.027C23.8813 84.0413 23.8766 84.0578 23.8766 84.0746C23.8766 84.0914 23.8813 84.1078 23.8903 84.1221C24.4048 84.6275 24.9665 85.0825 25.5677 85.4808C24.6563 88.5951 24.7569 88.7685 24.5556 89.0201C22.8279 91.1392 20.7424 92.3749 18.6848 92.5762C17.7286 92.6824 16.7837 92.8501 16.4482 93.7783C16.1743 94.6226 16.9011 95.1873 17.751 95.4221C18.3101 95.5731 22.1234 96.4174 22.6881 96.4845C23.1886 96.5684 23.702 96.4541 24.1195 96.1658C24.5221 95.8695 25.8472 94.3039 26.356 93.8342C25.4335 98.3073 24.7905 96.8815 26.9879 97.8376C27.0186 97.854 27.0525 97.8633 27.0872 97.865C27.122 97.8666 27.1566 97.8605 27.1887 97.8472C27.2208 97.8338 27.2495 97.8135 27.2728 97.7876C27.2961 97.7618 27.3134 97.7311 27.3233 97.6978C27.7147 96.5796 30.365 90.1887 31.4442 88.528C31.7069 95.2824 31.6622 94.9301 31.7573 94.9581C32.1319 95.0531 32.5401 95.1426 32.9594 95.2264C32.9594 96.1658 32.9874 97.1275 33.0656 98.1787C33.0656 98.2122 33.0209 98.2681 32.9762 98.3576C31.5895 101.399 30.0351 102.641 28.3466 103.39C27.5973 103.725 26.5629 104.184 26.5909 105.218C26.5909 106.113 27.5079 106.398 28.3969 106.364C29.7332 106.32 31.4609 106.141 32.2437 106.102C34.4802 105.967 34.5362 105.542 35.4867 103.625C35.7047 103.183 35.9619 102.657 36.1073 102.4C36.3701 105.542 36.0234 106.007 36.454 105.984C37.6226 105.923 38.1314 106.241 38.1314 105.822C38.1761 104.67 38.6905 100.141 38.9589 99.0285C38.9589 98.8999 38.8694 98.8273 38.7352 98.7993C38.903 97.7593 39.2944 95.7129 39.3447 95.3383C39.6243 95.2991 39.9038 95.2544 40.1219 95.2041C40.1834 95.2041 40.1219 95.5004 41.0668 91.6033C47.8547 94.2815 55.0954 94.9245 61.5926 93.3981C61.8218 94.2871 63.4824 100.348 64.3882 103.004C64.6969 103.872 65.1079 104.699 65.6127 105.47C65.7413 105.593 65.9594 105.811 66.1718 105.811C66.3843 105.811 66.6191 105.514 66.6751 105.213C66.731 104.911 65.8531 96.0931 65.5568 92.9116C66.8853 92.5825 68.1734 92.1082 69.398 91.497L71.2096 97.5133C71.2627 97.6029 71.3425 97.6737 71.4378 97.7156C71.5332 97.7574 71.6393 97.7683 71.7412 97.7467C71.8431 97.7251 71.9356 97.6721 72.0057 97.5951C72.0759 97.5181 72.1201 97.4211 72.1322 97.3176L71.9589 90.1104C72.8054 89.5587 73.6159 88.9536 74.3855 88.2988C74.7349 88.6366 75.1279 88.9262 75.5541 89.1599C75.5979 89.184 75.6495 89.19 75.6976 89.1764C75.7458 89.1628 75.7866 89.1307 75.8113 89.0872C76.2763 88.3841 76.798 87.7202 77.3713 87.1023C77.2594 87.8235 77.0414 89.2997 77.0134 89.7581C77.0126 89.7877 77.0179 89.8171 77.0289 89.8446C77.0398 89.8721 77.0563 89.8971 77.0772 89.918C77.0981 89.9389 77.1231 89.9554 77.1506 89.9663C77.1781 89.9773 77.2075 89.9826 77.2371 89.9818C77.8308 89.9632 78.4237 90.0406 78.9927 90.211C77.17 91.0889 76.3369 91.8325 76.4487 92.4476C76.6671 93.5459 76.9738 94.6248 77.3657 95.6738C77.6676 96.546 77.9807 97.4518 78.9201 97.832C83.2254 99.6548 89.6218 98.324 93.9439 96.5069C97.6118 95.0699 98.1486 92.7439 97.8243 89.4562C97.7572 88.83 97.0303 88.7573 95.5039 88.7964L99.2221 84.0941C100.34 82.7578 99.3675 82.8025 99.0153 80.1802C99.3521 80.6792 99.7567 81.129 100.217 81.5165C100.245 81.538 100.276 81.5535 100.31 81.5622C100.344 81.5709 100.379 81.5724 100.413 81.5669C100.564 81.5389 100.447 81.6172 101.833 79.1235C101.86 79.078 101.87 79.0249 101.861 78.9729C101.853 78.921 101.828 78.8735 101.789 78.8383C101.179 78.3351 99.7086 77.1609 99.7086 77.1609C100.467 76.9815 101.213 76.7575 101.945 76.4899C102.12 76.445 102.277 76.3511 102.4 76.2193C102.523 76.0876 102.606 75.9234 102.638 75.7463C102.711 75.3102 102.717 66.5262 102.728 65.3297C102.728 65.134 102.415 65.0781 102.381 65.2905C101.727 69.7244 98.7245 73.4147 94.8889 74.5162C95.0119 74.0186 95.325 72.9395 95.1517 72.6431C94.5192 72.245 93.8464 71.9152 93.1444 71.659C93.8433 71.2621 95.4592 70.2277 95.5766 69.909C95.6493 69.7244 95.2914 61.097 95.2747 60.1521C95.2719 60.1132 95.2569 60.0761 95.2317 60.0462C95.2066 60.0164 95.1726 59.9953 95.1347 59.986C95.0968 59.9766 95.0569 59.9796 95.0207 59.9944C94.9846 60.0091 94.9541 60.035 94.9336 60.0682C93.851 62.2059 92.2496 64.0379 90.276 65.3968C90.0468 65.5533 88.3973 66.4312 88.2687 66.5486C87.855 66.9456 88.3694 67.432 88.5874 67.7395C88.744 67.952 89.2808 68.6733 89.387 68.8242C87.4189 69.0647 86.8989 68.3881 86.7982 68.8242C86.6048 69.3938 86.3439 69.9382 86.021 70.4457C86.1363 70.9358 86.2839 71.4177 86.4627 71.8883C86.1351 71.9422 85.8008 71.9422 85.4731 71.8883C85.4147 71.8757 85.3537 71.8854 85.302 71.9154C85.2503 71.9454 85.2116 71.9935 85.1935 72.0504C85.037 72.5592 84.9139 72.9842 84.8021 73.3812C84.1244 72.2317 83.3775 71.1245 82.5656 70.0655C82.1686 67.035 80.7372 63.4957 77.7123 63.026C79.988 62.0755 81.4809 59.6321 81.8387 57.1552C82.9123 57.1552 98.4226 57.1104 99.0488 57.1552C102.443 57.2502 103.958 55.953 104.277 52.492C104.405 51.1109 104.159 27.2807 104.159 27.0291ZM26.9487 93.5994C26.9628 93.5402 26.9539 93.4778 26.9238 93.4249C26.8937 93.3719 26.8447 93.3324 26.7866 93.3142C26.3337 93.1465 25.987 93.5435 25.7354 93.8286C25.0985 94.6039 24.3991 95.3258 23.6443 95.9869C23.2249 96.1882 18.3437 95.1761 17.7342 94.986C17.4062 94.9117 17.1208 94.7107 16.9403 94.4269C16.8697 94.2206 16.8773 93.9955 16.9619 93.7944C17.0464 93.5934 17.2019 93.4305 17.3988 93.3366C17.8293 93.0738 18.148 93.0962 19.3557 92.8725C20.5634 92.6489 21.76 92.4308 23.8623 90.4515C24.1552 90.1709 24.428 89.8701 24.6787 89.5513C25.0277 90.3273 25.6154 90.9718 26.356 91.3908C27.3483 91.8314 28.4565 91.9393 29.5151 91.6983C28.956 92.8166 27.4128 96.3112 27.027 97.3791C26.7195 97.2561 26.4064 97.1443 26.0988 97.0548C26.4452 95.9194 26.7289 94.7659 26.9487 93.5994ZM76.0517 62.9813C75.2653 63.015 74.4842 63.1274 73.7201 63.3168C71.2158 63.5999 68.6977 63.7455 66.1774 63.7529C65.8084 61.5164 65.9202 61.9301 65.8252 61.3095C65.786 61.0411 65.7301 60.6721 65.9258 60.5547C68.6041 59.3581 71.3885 58.2734 74.0556 57.1048C74.6147 57.513 74.6595 57.4627 74.7098 57.4291C74.7338 57.4033 74.7471 57.3693 74.7471 57.3341C74.7471 57.2988 74.7338 57.2649 74.7098 57.239C74.4916 57.0185 74.262 56.8095 74.0221 56.6128C71.8756 54.6932 70.3805 52.1526 69.7447 49.3441C69.7373 49.3107 69.7169 49.2817 69.6881 49.2633C69.6592 49.245 69.6243 49.2388 69.5909 49.2462C69.5576 49.2536 69.5285 49.274 69.5102 49.3028C69.4918 49.3317 69.4857 49.3666 69.4931 49.4C69.9668 52.3207 71.4775 54.9728 73.7481 56.87L66.0377 60.0571C65.8148 60.1225 65.6188 60.2577 65.4785 60.4429C65.0926 60.3379 64.7439 60.1268 64.4721 59.8334C63.0183 58.6648 62.4368 59.4644 60.5582 60.9517C60.3765 61.0887 60.2047 61.2381 60.0438 61.399C59.0506 60.5157 58.061 59.6285 57.0748 58.7375C56.8232 58.3685 54.5307 50.4623 53.5914 47.2865C54.3175 45.5259 55.489 43.9844 56.9909 42.8134C57.1645 43.3437 57.3834 43.8582 57.6451 44.351C58.0644 44.7536 58.6068 44.5579 59.1324 44.4293C58.9875 44.7298 58.904 45.0561 58.8868 45.3893C58.8695 45.7224 58.9188 46.0556 59.0317 46.3695C59.4276 47.257 60.0458 48.0274 60.8265 48.606C62.7388 50.2834 62.6437 50.2387 62.7555 50.2387C62.8072 50.2361 62.8561 50.2148 62.8931 50.1788C62.9302 50.1428 62.9528 50.0945 62.9568 50.043C63.1469 48.0916 63.7732 47.5549 65.54 46.9342C66.5063 46.6188 67.3239 45.9609 67.8389 45.0845C68.3538 44.2081 68.5305 43.1736 68.3357 42.176C69.5043 42.1849 70.6687 42.0344 71.7967 41.7287C71.85 41.7167 71.8964 41.6841 71.9257 41.638C71.955 41.5919 71.9649 41.5361 71.9533 41.4827C71.9533 41.3876 71.9141 41.2758 71.8862 41.1584C80.0439 45.1226 85.0146 57.4739 78.4336 62.0643C77.7179 62.5436 76.9041 62.8569 76.0517 62.9813ZM77.9304 63.6187C79.3674 63.9262 80.5695 65.134 81.3523 67.2587C85.0873 77.351 76.3816 89.5792 65.5736 92.4196C65.5065 91.7431 65.1375 87.818 65.0648 87.5272C65.0112 87.2706 64.8636 87.0432 64.651 86.8898C63.9633 86.5096 62.7835 86.9289 62.1573 87.298C61.5603 87.6943 61.0268 88.1788 60.5749 88.7349C60.5749 88.9138 61.3577 92.2854 61.5255 92.9731C54.7297 94.3944 47.6661 93.7877 41.2122 91.2287C42.2074 87.0911 43.527 81.4271 43.896 79.6714C47.7429 80.8679 53.1497 80.7561 53.2056 80.7505C53.2235 80.7458 53.2393 80.7353 53.2506 80.7206C53.2618 80.7059 53.268 80.688 53.268 80.6695C53.268 80.6509 53.2618 80.633 53.2506 80.6183C53.2393 80.6036 53.2235 80.5931 53.2056 80.5884C50.1024 79.554 47.4241 76.8869 45.6685 73.0736C42.9679 67.3761 37.3654 67.4432 35.1847 70.278C32.0312 74.3708 31.5224 86.2803 31.4721 87.7173C31.2764 88.0752 30.1526 90.2725 29.7276 91.1672C26.3728 91.9667 25.4167 90.0489 25.0085 89.227C24.9414 89.0872 24.975 89.4562 26.015 85.7827C26.5741 86.0567 30.5495 87.4601 30.5551 87.0464C30.5999 82.2937 31.7517 70.9881 34.8716 68.3881C37.1082 66.5542 41.9446 66.8729 44.0861 68.4608C45.4475 69.7035 46.5612 71.1928 47.3682 72.85C49.163 76.7024 52.255 79.5596 55.6881 80.2753C60.0885 79.8895 65.1934 72.878 66.6527 68.3937C69.3477 64.9774 73.7928 63.0205 77.9304 63.6187ZM86.6808 86.3586C86.6882 86.392 86.7086 86.421 86.7374 86.4394C86.7663 86.4577 86.8012 86.4639 86.8346 86.4565C86.8679 86.4491 86.897 86.4287 86.9153 86.3998C86.9337 86.371 86.9398 86.3361 86.9324 86.3027C86.5802 84.5023 85.5849 82.9479 84.9587 81.2705C83.874 78.4022 84.6623 75.3214 85.5793 72.4083C85.9883 72.4847 86.411 72.4299 86.787 72.2517C87.0946 72.0113 86.8485 71.6031 86.5019 70.5743C86.7869 70.1432 87.0109 69.6747 87.1673 69.1821C88.0411 69.3889 88.9499 69.4003 89.8287 69.2156C89.8628 69.2069 89.8944 69.1903 89.9209 69.1671C89.9474 69.1438 89.968 69.1147 89.9811 69.082C89.9941 69.0493 89.9993 69.014 89.9962 68.9789C89.993 68.9438 89.9816 68.91 89.9629 68.8802C89.5883 68.3881 88.5986 67.0406 88.5483 66.94C88.498 66.8393 88.5483 66.8505 88.7104 66.7778C91.383 65.5616 93.5745 63.4901 94.9392 60.8902C95.0063 62.7185 95.2243 69.5232 95.1628 69.7971C94.2941 70.4259 93.3781 70.9867 92.4231 71.4745C92.3814 71.4975 92.3475 71.5324 92.3256 71.5747C92.3038 71.6171 92.295 71.6649 92.3004 71.7122C92.3058 71.7595 92.3251 71.8042 92.3559 71.8405C92.3867 71.8768 92.4276 71.9032 92.4734 71.9162C93.2645 72.1867 94.0313 72.5234 94.7659 72.9227C94.8665 73.0848 94.5142 74.3652 94.4527 74.6951L93.8936 74.807C93.838 74.8215 93.7901 74.8569 93.7599 74.9059C93.7297 74.9548 93.7195 75.0135 93.7315 75.0697C93.8768 76.0594 94.2067 78.4972 94.2067 78.4972C92.602 77.0043 92.6132 76.1768 92.2665 76.1433C92.2321 76.139 92.1972 76.1434 92.165 76.1561C92.1328 76.1688 92.1042 76.1894 92.082 76.216C89.4529 79.2666 87.9769 83.1427 87.9109 87.1694C87.9172 87.1996 87.9336 87.2267 87.9576 87.2462C87.9815 87.2657 88.0114 87.2763 88.0423 87.2763C88.0732 87.2763 88.1031 87.2657 88.127 87.2462C88.1509 87.2267 88.1674 87.1996 88.1737 87.1694C88.3842 83.3594 89.7976 79.7143 92.2106 76.7583C92.7667 77.7163 93.4967 78.5621 94.3633 79.2521C94.4002 79.2848 94.4465 79.3052 94.4957 79.3101C94.5448 79.3151 94.5943 79.3044 94.637 79.2796C94.6797 79.2549 94.7135 79.2172 94.7337 79.1721C94.7538 79.127 94.7592 79.0767 94.7491 79.0284C94.7491 79.0284 94.3465 76.3054 94.1899 75.1983C97.9976 74.5218 101.269 71.2844 102.37 67.158C102.37 69.4561 102.292 75.1536 102.292 75.2095C102.292 75.573 102.292 75.9196 101.967 76.0818C101.05 76.4039 100.117 76.6782 99.1718 76.9037C99.1331 76.9139 99.0978 76.9343 99.0697 76.9628C99.0416 76.9913 99.0216 77.0269 99.0119 77.0657C99.0022 77.1046 99.0031 77.1453 99.0145 77.1837C99.0259 77.2221 99.0474 77.2567 99.0768 77.2839C99.3396 77.4964 100.849 78.7321 101.347 79.129C101.347 79.129 100.665 80.4318 100.318 81.0748C99.7511 80.5502 99.2816 79.9293 98.9314 79.2409C98.9087 79.2017 98.8738 79.1711 98.832 79.1537C98.7903 79.1363 98.744 79.1331 98.7002 79.1445C98.6564 79.1559 98.6176 79.1814 98.5897 79.2169C98.5618 79.2525 98.5463 79.2963 98.5456 79.3415C98.7021 83.0765 99.8987 82.5901 98.909 83.8146C95.4983 88.1031 94.9 89.4898 91.2265 90.5745C91.9646 87.2197 94.4919 85.861 95.5039 83.44C96.063 82.1148 95.94 80.6443 96.3817 79.3136C96.6893 78.39 97.192 77.5434 97.8558 76.8314C98.5195 76.1194 99.3288 75.5586 100.229 75.1872C100.261 75.176 100.288 75.1524 100.303 75.1215C100.318 75.0906 100.321 75.0548 100.31 75.0222C100.299 74.9896 100.275 74.9627 100.244 74.9475C100.213 74.9323 100.177 74.93 100.145 74.9411C98.9729 75.3546 97.939 76.0852 97.1581 77.0517C96.3772 78.0182 95.88 79.1826 95.722 80.415C95.4815 82.1316 95.5319 82.9759 94.4583 84.4799C93.273 86.1294 91.3328 87.5887 90.7066 90.7143C89.7342 90.9563 88.739 91.095 87.7376 91.128C87.6201 90.1272 87.0051 89.5401 86.569 89.5177C86.1664 88.8132 81.9226 82.3552 80.357 80.9406C82.0883 77.825 82.8843 74.2763 82.6495 70.7197C83.3204 71.7094 84.4666 73.5657 84.6679 73.9291C82.7166 81.455 85.9036 82.5845 86.6808 86.3586ZM77.8633 86.6046C77.8631 86.5652 77.8517 86.5266 77.8303 86.4935C77.809 86.4603 77.7786 86.434 77.7427 86.4175C77.7069 86.4011 77.6671 86.3952 77.628 86.4006C77.5889 86.406 77.5522 86.4225 77.5222 86.4481C76.8073 87.1578 76.1579 87.9307 75.582 88.7573C75.2528 88.5652 74.9437 88.3404 74.6595 88.0863C76.0108 86.912 77.2363 85.6003 78.3162 84.1724C84.2542 91.2958 83.969 91.0889 84.1368 90.9547C84.1499 90.9458 84.1611 90.9343 84.1697 90.9209C84.1783 90.9075 84.1841 90.8925 84.1867 90.8768C84.1893 90.8611 84.1887 90.8451 84.1849 90.8296C84.1811 90.8142 84.1743 90.7997 84.1647 90.7869C83.7733 90.1943 79.7867 85.1956 78.5734 83.7922C79.1496 82.996 79.6761 82.165 80.1501 81.3041C82.3867 83.4903 85.8589 89.2437 86.1832 89.7861C85.8745 90.2302 85.7301 90.768 85.775 91.3069C85.0687 91.5042 84.3265 91.5367 83.6056 91.402C82.7501 91.2342 79.5519 89.6631 77.4551 89.6016C77.5893 88.9921 77.8018 87.1302 77.8801 86.6046H77.8633ZM63.2252 87.3147H63.3203C63.7564 87.2141 64.4385 87.0631 64.6007 87.5048C64.6845 87.8068 66.3731 104.486 66.3731 105C66.3821 105.081 66.3733 105.163 66.3472 105.24C66.3211 105.318 66.2784 105.388 66.2222 105.447C64.7684 104.888 61.19 90.0545 61.0502 88.7964C61.6137 88.0994 62.3703 87.584 63.2252 87.3147ZM3.68884 60.9125C3.68884 59.6321 2.83896 34.2475 2.92283 33.3305C3.0682 31.6028 3.68884 30.8256 5.05871 30.6467C6.50686 30.3671 20.0267 29.9813 21.5028 29.9422C21.5363 30.5013 21.5643 30.8927 21.5755 30.9654C21.6374 31.4053 21.8473 31.811 22.1704 32.1159C22.4935 32.4207 22.9108 32.6065 23.3535 32.6428C23.3535 32.5869 22.9845 32.6428 34.5362 32.6819C34.5362 34.4264 34.6424 42.6233 34.648 43.0091C31.3603 43.1321 27.9719 43.2663 27.3233 43.3278C27.2339 43.3278 27.1556 43.49 27.1892 43.5682C28.162 45.9725 32.4953 55.735 33.7086 58.2399C33.8218 58.5245 34.0163 58.7695 34.2678 58.9444C34.4243 59.1792 34.6088 59.442 34.8269 59.7048C33.0545 61.1194 32.417 62.685 31.3882 64.9774C26.6524 65.0781 7.45739 65.475 7.02686 65.4583C5.83031 65.4079 4.98602 65.0613 4.46044 64.4015C3.66088 63.451 3.69443 62.1538 3.68884 60.9125ZM68.3748 38.5808C68.4922 39.0057 68.934 39.235 69.6161 39.2517C70.7903 39.2014 71.2935 40.2135 71.506 41.3764C70.363 41.5998 69.2035 41.7289 68.0393 41.7622C68.0056 41.7626 67.9725 41.7708 67.9425 41.7861C67.9125 41.8014 67.8864 41.8235 67.8664 41.8506C67.8463 41.8777 67.8328 41.909 67.827 41.9422C67.8211 41.9754 67.823 42.0095 67.8325 42.0418C68.011 42.6801 68.0127 43.3549 67.8374 43.994C67.6621 44.6332 67.3164 45.2127 66.8372 45.6706C65.3331 47.1187 62.9233 46.3192 62.571 49.6572C62.0678 49.2211 60.2059 47.6387 59.8257 47.1746C59.1715 46.4198 58.9087 45.1674 59.5797 44.379C61.0164 44.1442 62.4685 44.0152 63.9241 43.9932C63.9568 43.9932 63.988 43.9802 64.0111 43.9572C64.0342 43.9341 64.0471 43.9028 64.0471 43.8702C64.0471 43.8376 64.0342 43.8063 64.0111 43.7832C63.988 43.7601 63.9568 43.7472 63.9241 43.7472C62.2494 43.6284 60.5662 43.7489 58.9255 44.105C58.2993 44.2783 57.9917 44.4014 57.7122 43.8143C57.5724 43.5179 56.7393 40.9795 56.5939 40.5098C56.3367 39.9003 56.4933 40.0849 56.9629 39.7941C57.4231 40.183 57.9397 40.4997 58.495 40.7334C58.495 40.8005 58.7857 41.6896 58.8304 41.8517C58.8494 41.9861 58.9166 42.1089 59.0195 42.1974C59.1224 42.2859 59.2539 42.3339 59.3896 42.3326C60.6934 42.4524 62.0071 42.2614 63.223 41.7755C64.4388 41.2895 65.5222 40.5224 66.3843 39.5369C66.4014 39.5135 66.4093 39.4845 66.4063 39.4556C66.4033 39.4267 66.3897 39.4 66.3682 39.3805C66.3466 39.3611 66.3186 39.3503 66.2896 39.3503C66.2606 39.3502 66.2326 39.3609 66.211 39.3803C65.345 40.2556 64.3046 40.9389 63.1573 41.3859C62.01 41.8329 60.7816 42.0335 59.5517 41.9747C59.1603 41.9468 59.2106 42.0306 58.8808 40.8565C60.3904 41.2814 60.7706 40.7055 60.2339 41.2367C60.2164 41.2576 60.2067 41.2839 60.2065 41.3112C60.2063 41.3384 60.2156 41.3649 60.2328 41.3861C60.25 41.4072 60.274 41.4217 60.3007 41.4271C60.3274 41.4325 60.3552 41.4284 60.3792 41.4156C62.4131 39.895 63.8968 37.7538 64.6063 35.3155C64.6114 35.2997 64.6133 35.283 64.6118 35.2665C64.6104 35.25 64.6056 35.2339 64.5977 35.2193C64.5899 35.2047 64.5792 35.1918 64.5662 35.1814C64.5533 35.171 64.5384 35.1634 64.5224 35.1589C64.2317 35.0583 64.4274 35.6342 63.0631 37.8651C62.5039 35.6286 62.8786 33.2634 62.2747 31.0157C62.2665 30.9838 62.246 30.9565 62.2177 30.9397C62.1894 30.923 62.1556 30.9181 62.1237 30.9263C62.0918 30.9344 62.0645 30.9549 62.0477 30.9832C62.031 31.0115 62.0261 31.0454 62.0343 31.0772C62.1322 31.5529 62.1957 32.035 62.2244 32.5198C61.0334 31.34 58.5173 29.4558 56.5324 29.8863C56.1048 29.8995 55.6995 30.0805 55.4044 30.3903C55.1093 30.7 54.9481 31.1136 54.9557 31.5413C54.4748 30.8927 54.8103 29.9031 55.2464 29.3551C56.3982 27.851 58.4446 27.1186 60.4855 26.5594C62.2915 26.0786 64.7069 26.1457 66.0768 27.7784C66.671 28.5932 67.1003 29.5163 67.3404 30.4957C68.0546 32.703 68.5527 34.9744 68.8277 37.278C68.849 37.3709 68.8447 37.4678 68.8151 37.5585C68.7856 37.6491 68.7319 37.7299 68.66 37.7924C68.5483 37.888 68.4634 38.0108 68.4134 38.149C68.3634 38.2872 68.3502 38.4359 68.3748 38.5808ZM34.1168 58.1057C33.5912 56.9874 28.3969 45.4693 27.5694 43.5682C29.4201 43.5682 50.3037 42.8022 50.6671 42.7911C51.3772 45.0723 55.5148 58.8493 55.5148 58.9667C55.5148 58.9667 50.5721 59.0898 47.905 59.196C43.404 56.9259 39.2385 57.1719 36.208 58.7766C34.497 58.704 34.4187 58.7375 34.1168 58.1057ZM55.3638 34.9129C55.2855 33.2355 55.3638 32.0669 55.6266 31.9495C56.5883 31.5134 58.3831 31.3904 60.3792 32.0222C60.6308 32.106 61.436 32.5254 62.2467 32.8665C62.3362 34.6557 62.2467 36.5511 62.8059 38.2844C62.3116 39.1511 61.6767 39.9296 60.9272 40.5881C57.5444 41.0354 55.5148 38.3292 55.3526 34.9129H55.3638ZM60.4967 68.349C60.3625 68.6062 62.6381 70.3171 62.8841 70.5016C63.6893 71.2621 62.7052 71.6758 61.8889 70.9434C57.4158 66.9232 53.6026 62.3159 48.6319 59.565C51.5282 59.47 55.1122 59.3637 55.7273 59.3581C56.3479 59.9564 63.5551 66.7051 65.417 68.3043C60.2171 68.3434 60.547 68.2595 60.4855 68.349H60.4967ZM65.9873 68.2707C65.9314 68.2204 56.4821 59.6824 56.1186 59.2575C55.9062 58.8996 51.9867 45.5979 51.0865 42.9197C51.6387 43.2963 52.0484 43.8477 52.2495 44.4852C52.5849 45.4413 56.3926 58.1895 56.4094 58.2511C56.4551 58.5607 56.5935 58.8492 56.8064 59.0786C58.2769 60.4932 64.5168 66.1516 66.5465 67.829C66.429 67.9744 66.3116 68.1197 66.1998 68.2707H65.9873ZM65.5792 62.8974C64.6063 62.8192 64.2988 62.7073 64.0583 63.0037C63.98 63.1267 63.7564 63.4007 63.4712 63.3392C63.4218 63.3276 63.3752 63.306 63.3345 63.2757C63.2938 63.2453 63.2598 63.2069 63.2346 63.1629C63.2094 63.1188 63.1936 63.07 63.1881 63.0195C63.1827 62.969 63.1877 62.9179 63.2029 62.8695C63.4768 62.6123 63.762 62.3886 64.0192 62.1147C64.0329 62.0953 64.0398 62.072 64.0388 62.0483C64.0377 62.0246 64.0287 62.0019 64.0133 61.9839C63.9979 61.9659 63.9768 61.9536 63.9536 61.9489C63.9303 61.9442 63.9062 61.9475 63.885 61.9581C63.5998 62.1426 63.3259 62.439 63.0016 62.6347C62.9748 62.635 62.9484 62.6412 62.9243 62.6528C62.9001 62.6644 62.8788 62.6811 62.8618 62.7017C62.7948 62.7289 62.7224 62.7403 62.6504 62.7349C62.5783 62.7295 62.5084 62.7076 62.4462 62.6708C62.3839 62.634 62.331 62.5834 62.2916 62.5228C62.2522 62.4622 62.2272 62.3933 62.2188 62.3215C62.2188 61.8742 62.6996 61.5779 62.9792 61.248C63.091 61.1362 62.9233 60.9684 62.8059 61.0747C62.5063 61.3276 62.2277 61.6043 61.9728 61.9022C61.6506 62.0046 61.3218 62.085 60.9887 62.1426C60.8377 62.1426 60.9887 62.2377 60.3289 61.6729C61.0168 61.0277 61.7658 60.451 62.5654 59.9508C63.9241 59.0562 64.1757 60.605 65.4002 60.7839C65.3991 61.4923 65.4589 62.1994 65.5792 62.8974ZM66.8372 67.5047L61.2067 62.4725C61.4109 62.4322 61.6126 62.3799 61.8106 62.3159C61.8061 62.4374 61.8299 62.5581 61.8801 62.6688C61.9303 62.7794 62.0056 62.8768 62.1 62.9533C62.1944 63.0298 62.3053 63.0832 62.4239 63.1095C62.5426 63.1357 62.6657 63.1339 62.7835 63.1043C62.8059 63.2229 62.8559 63.3345 62.9296 63.4301C63.0033 63.5257 63.0986 63.6025 63.2076 63.6542C63.3166 63.706 63.4363 63.7313 63.5569 63.7281C63.6776 63.7248 63.7957 63.6931 63.9018 63.6355C64.6734 63.2832 63.9018 63.1491 65.1486 63.2609C65.3108 63.2609 65.4841 63.2944 65.6518 63.3C65.7022 63.5628 65.7525 63.8032 65.8084 64.0325C65.8218 64.0782 65.8499 64.1183 65.8883 64.1466C65.9266 64.1748 65.9732 64.1897 66.0209 64.189C76.0182 63.9766 71.109 62.5955 66.826 67.5047H66.8372ZM53.418 46.6826C52.7862 44.5635 52.4563 42.8526 51.1815 42.4164C51.1815 42.4835 51.6568 42.3437 35.1065 42.9756C35.1065 40.2526 34.989 33.666 34.9723 32.6652H55.0172C54.8606 35.0862 55.0172 37.6974 56.6946 39.4978C56.4933 39.576 56.1354 39.7438 56.0516 39.8836C56.2578 40.7872 56.5344 41.6734 56.8791 42.5339C55.3789 43.5925 54.1788 45.0219 53.3957 46.6826H53.418ZM51.12 29.3998C51.12 28.6171 50.9411 24.4068 50.9019 23.6352H52.3277C52.3277 24.4292 52.434 28.6226 52.4675 29.3942C52.0202 29.3831 51.5673 29.3887 51.12 29.3998ZM42.9287 29.5676C42.9343 28.0467 42.7386 15.1867 42.7107 13.5093H44.1364C44.1364 17.7587 44.2595 28.3878 44.2818 29.5452L42.9287 29.5676ZM34.1056 15.6676H35.537C35.537 19.3411 35.6544 28.6171 35.6824 29.7185H34.3293C34.3349 28.3431 34.1392 17.1996 34.1056 15.6676ZM21.9669 30.7194C21.8886 30.2441 21.24 15.3544 20.9772 9.6513C20.9157 7.89562 21.3798 5.73737 22.5595 4.73653C22.5595 8.65045 23.0628 30.2497 23.1746 32.2067C22.8455 32.1117 22.5534 31.9183 22.3375 31.6524C22.1216 31.3865 21.9923 31.0609 21.9669 30.7194ZM73.2672 26.073C73.2212 25.708 73.3086 25.3387 73.5132 25.033C73.9509 24.6884 74.4209 24.3869 74.9167 24.1328C74.3575 25.1393 74.5029 24.8597 74.7993 42.5283C74.338 42.1767 73.8584 41.8501 73.3623 41.5498C73.3064 38.7318 73.2784 28.4885 73.284 26.073H73.2672ZM78.154 32.285C78.4139 31.9162 78.7591 31.6157 79.1603 31.4093C79.5614 31.2029 80.0065 31.0967 80.4577 31.0996C82.7333 31.0996 83.5609 33.8058 84.0082 36.0088C84.3996 37.7365 84.4275 39.7717 85.6856 41.1808C91.5341 46.4813 91.9758 39.084 95.5319 39.3692C96.6501 39.4978 97.3938 40.521 98.1933 41.259C98.5351 41.6429 99.0146 41.8765 99.5276 41.9089C100.041 41.9414 100.546 41.7701 100.933 41.4324V49.3776C99.5576 49.3776 82.0903 49.249 80.1725 49.2714C79.7056 48.2942 79.1556 47.3588 78.5287 46.4757C78.5958 45.7992 78.182 32.8888 78.1708 32.285H78.154ZM80.3906 49.6516C82.9626 49.6907 99.2836 49.7355 100.978 49.7355C100.98 49.9485 100.993 50.1612 101.017 50.3729C101.021 50.4179 101.042 50.4599 101.075 50.4908C101.107 50.5217 101.151 50.5394 101.196 50.5406C101.526 50.5406 101.375 51.0494 101.319 35.8858C101.319 35.8487 101.304 35.8131 101.278 35.7869C101.252 35.7607 101.216 35.746 101.179 35.746C101.142 35.746 101.106 35.7607 101.08 35.7869C101.054 35.8131 101.039 35.8487 101.039 35.8858C101.039 36.881 100.978 40.1687 100.972 40.8173C100.844 41.0194 100.67 41.1883 100.463 41.31C100.257 41.4317 100.025 41.5028 99.7862 41.5175C99.5473 41.5323 99.3083 41.4902 99.0887 41.3947C98.8692 41.2992 98.6754 41.1531 98.5232 40.9683C96.9073 39.2909 95.3082 37.8931 92.971 40.0513C91.0588 42.025 90.0076 43.6913 87.3797 41.9859C86.3157 41.4189 85.5137 40.4606 85.1432 39.3133C84.2598 36.143 84.5058 31.2506 80.7708 30.602C80.2714 30.5509 79.7672 30.6231 79.3022 30.8122C78.8372 31.0013 78.4257 31.3016 78.1037 31.6867C78.1037 30.8368 78.0422 30.0093 78.0087 29.1482C78.0087 29.1126 77.9945 29.0785 77.9694 29.0533C77.9442 29.0282 77.9101 29.014 77.8745 29.014C77.8389 29.014 77.8048 29.0282 77.7796 29.0533C77.7544 29.0785 77.7403 29.1126 77.7403 29.1482C77.7403 30.0764 78.031 43.0371 78.1205 45.8831C77.2589 44.7554 76.268 43.7327 75.1683 42.8358C75.1683 40.7055 74.9782 26.8726 74.9558 26.0171C74.9223 24.4627 75.5429 23.5625 76.9743 23.1879C78.1485 22.8636 99.2613 22.5393 101.269 22.8133C102.599 22.981 103.36 24.2838 103.55 25.4132C103.785 26.8167 103.852 50.015 103.857 50.3226C103.902 53.0623 103.578 56.1879 100.726 56.5737C100.083 56.6631 84.1759 56.7023 81.8667 56.6799C81.9381 54.2545 81.4362 51.8465 80.4017 49.6516H80.3906ZM64.0192 6.12876C64.6901 7.30294 64.3099 6.97864 64.7852 26.2911C62.4704 25.2455 59.1939 26.2072 56.9573 27.4093V10.8422C56.9573 10.7136 57.2481 10.7528 55.28 10.7528C55.1569 10.7528 55.1681 9.60098 55.5819 28.3375C55.2463 28.6403 54.9547 28.9885 54.7152 29.3719H52.8365C52.8365 28.645 52.6241 23.4898 52.6017 23.4451C52.5952 23.416 52.5789 23.3901 52.5554 23.3717C52.532 23.3534 52.5029 23.3437 52.4731 23.3444C51.869 23.3242 51.2642 23.3372 50.6615 23.3836C50.6436 23.3958 50.6295 23.4127 50.6206 23.4324C50.6117 23.4521 50.6085 23.4739 50.6112 23.4954C50.6112 24.0545 50.7118 28.5947 50.751 29.3998L48.6431 29.4446C48.7493 19.8946 48.7884 20.3978 48.6431 20.3866C47.1278 20.4481 47.0943 20.4202 47.0943 20.532V29.4781L44.6341 29.5284C44.6341 28.2816 44.444 14.1914 44.4048 13.3751C44.4065 13.3383 44.3941 13.3023 44.3703 13.2743C44.3464 13.2463 44.3128 13.2284 44.2762 13.2241C44.2762 13.2241 42.5261 13.2241 42.4702 13.2801C42.3081 13.4087 42.5597 28.9358 42.5597 29.5732L39.9038 29.6235V21.2757C39.8841 21.2679 39.8621 21.2679 39.8423 21.2757C38.2991 21.2757 38.3159 21.2757 38.3159 21.3987V29.657L36.0458 29.7241C35.8893 15.2873 35.7607 15.5501 35.8166 15.5501C35.8168 15.5143 35.8038 15.4797 35.7801 15.4528C35.7563 15.426 35.7235 15.4089 35.688 15.4048C35.688 15.4048 33.9491 15.4048 33.8932 15.4495C33.703 15.5669 33.9714 28.7736 33.9714 29.7689L30.8962 29.8248C30.913 8.0354 30.9745 9.03625 30.8291 9.03625L29.4592 9.08657C29.3642 9.08657 29.3977 7.75025 29.3977 29.8471C27.0941 29.8919 27.1612 29.8471 27.1277 29.9366C27.1169 29.954 27.1109 29.974 27.1103 29.9945C27.1096 30.0149 27.1143 30.0352 27.1239 30.0533C27.1335 30.0714 27.1477 30.0866 27.165 30.0976C27.1824 30.1085 27.2022 30.1147 27.2227 30.1155C30.6166 30.1155 51.1703 29.9086 54.5195 29.808C54.1841 30.6635 54.2456 31.6084 55.0228 32.106V32.229C51.791 32.3241 24.1363 32.229 23.6387 32.229C23.6387 31.4966 23.0124 5.91629 23.0068 4.48492C26.8816 4.48492 61.0278 4.53524 61.9168 4.68061C62.3527 4.7512 62.7673 4.91774 63.1309 5.16818C63.4945 5.41863 63.7979 5.74673 64.0192 6.12876ZM3.07379 31.2338C2.43079 32.162 2.39724 33.3697 2.39724 34.5383C2.39724 34.7955 3.18003 62.3159 3.29744 62.9869C3.36432 63.4738 3.53463 63.9408 3.79695 64.3565C4.05927 64.7722 4.40751 65.1269 4.81828 65.3968C4.16106 65.3637 3.51856 65.1902 2.93401 64.888C1.69274 64.2058 1.22307 62.8024 1.05533 62.0252C0.758986 60.6274 0.367593 36.6182 0.434689 35.377C0.39555 33.3194 1.09446 32.2067 3.06261 31.2338H3.07379ZM86.9436 94.466C89.1816 94.31 91.3739 93.7571 93.4183 92.8334C94.8721 92.1624 96.6837 91.1001 97.4329 90.2558C97.5503 92.8949 97.0136 94.6002 94.3018 95.8471C90.7121 97.5245 82.1966 99.5821 78.5175 97.1275C78.1876 96.8088 77.3992 94.3877 77.0861 93.2695C78.6908 94.3374 83.3652 94.7512 86.9324 94.466H86.9436ZM36.3757 101.791C35.906 101.752 35.6824 102.221 35.5258 102.562C34.2174 105.358 34.2342 105.537 32.9035 105.626C32.4841 105.654 28.5367 105.979 28.2459 105.979C27.2283 106.051 26.6636 105.352 27.3849 104.497C27.796 104.187 28.2524 103.942 28.738 103.77C30.2923 103.049 32.7525 101.142 33.2949 98.7825C33.8561 99.4418 34.6217 99.8945 35.4699 100.069C36.52 100.181 37.5791 99.9643 38.5004 99.4479C38.2879 100.656 37.7959 104.419 37.7344 105.598C37.4075 105.564 37.0789 105.549 36.7503 105.554C36.7447 105.235 36.6385 101.813 36.3645 101.791H36.3757ZM38.4333 98.9111C37.7067 99.425 36.835 99.6934 35.9452 99.6771C35.4745 99.6417 35.0161 99.5097 34.5986 99.2894C34.1811 99.0692 33.8135 98.7653 33.5185 98.3967C33.5185 98.2234 33.457 96.3503 33.4738 95.3439C35.2854 95.4867 37.1039 95.5222 38.9197 95.4501C38.8303 95.9421 38.5451 97.9382 38.4221 98.9111H38.4333Z" fill="black"/>
<path d="M94.0949 26.7384C94.1265 26.732 94.1549 26.7148 94.1754 26.6899C94.1958 26.6649 94.2069 26.6336 94.2069 26.6014C94.2069 26.5692 94.1958 26.5379 94.1754 26.5129C94.1549 26.488 94.1265 26.4708 94.0949 26.4644H93.1556C86.1273 26.6825 86.3566 26.6769 86.3621 26.8726C86.3677 27.0683 86.1497 27.113 94.0949 26.7384ZM94.3298 28.0468C93.0773 28.0468 88.1793 28.1139 86.9213 28.2145C86.8772 28.2221 86.8371 28.2451 86.8083 28.2794C86.7795 28.3137 86.7637 28.357 86.7637 28.4018C86.7637 28.4466 86.7795 28.4899 86.8083 28.5242C86.8371 28.5585 86.8772 28.5815 86.9213 28.5891C88.2017 28.5891 93.0717 28.3375 94.3354 28.2872C94.3627 28.2806 94.387 28.2649 94.4041 28.2426C94.4213 28.2203 94.4303 28.1928 94.4296 28.1647C94.429 28.1366 94.4187 28.1096 94.4005 28.0881C94.3824 28.0666 94.3574 28.052 94.3298 28.0468ZM93.0997 30.1044C92.2274 30.1379 89.4262 30.1044 86.7535 30.1044C86.6942 30.1044 86.6373 30.1279 86.5954 30.1699C86.5535 30.2118 86.5299 30.2687 86.5299 30.328C86.5299 30.3873 86.5535 30.4442 86.5954 30.4862C86.6373 30.5281 86.6942 30.5517 86.7535 30.5517C87.3127 30.5908 92.5573 30.3727 93.1053 30.3504C93.1379 30.3496 93.1689 30.336 93.1914 30.3124C93.214 30.2888 93.2262 30.2572 93.2255 30.2246C93.2248 30.192 93.2111 30.161 93.1875 30.1384C93.1639 30.1159 93.1323 30.1036 93.0997 30.1044ZM75.0845 2.16453C74.4293 2.32544 73.83 2.66107 73.3505 3.13566C72.8709 3.61026 72.5291 4.20604 72.3615 4.85955C71.7408 7.23586 73.8935 9.82464 76.3705 9.41088C76.9118 9.29658 77.424 9.07299 77.8759 8.7538C78.3278 8.4346 78.7097 8.02653 78.9984 7.55457C79.2804 7.03367 79.4405 6.45555 79.4667 5.86378C79.4928 5.272 79.3843 4.68201 79.1493 4.13827C78.8139 3.17656 77.8186 1.63895 75.0845 2.16453ZM76.4376 6.87802C75.3584 7.62166 74.0948 6.26856 74.5924 5.43546C75.487 3.94816 77.075 5.07202 77.1141 5.63115C77.1135 5.8794 77.0508 6.12355 76.9316 6.34134C76.8125 6.55913 76.6407 6.74362 76.432 6.87802H76.4376ZM76.3705 4.33396C75.9931 4.21523 75.587 4.2249 75.2157 4.36148C74.8445 4.49805 74.5289 4.75382 74.3184 5.08879C74.1464 5.39036 74.0815 5.74127 74.1343 6.08442C74.1871 6.42756 74.3545 6.74274 74.6092 6.97866C74.8121 7.17343 75.0616 7.31287 75.3338 7.38365C75.606 7.45444 75.8918 7.4542 76.1639 7.38295C76.436 7.3117 76.6853 7.17183 76.8879 6.97672C77.0904 6.78161 77.2396 6.53778 77.321 6.26856C77.7981 6.58151 78.3318 6.79805 78.8921 6.90597C78.6942 7.38897 78.3905 7.82148 78.0035 8.17174C77.6165 8.522 77.1559 8.78111 76.6556 8.93003C74.4191 9.57862 72.4286 7.54897 72.6802 5.35718C72.7539 4.84671 72.9426 4.35965 73.232 3.93277C73.5214 3.50588 73.9041 3.15032 74.351 2.89293C74.798 2.63554 75.2975 2.48303 75.812 2.44693C76.3265 2.41083 76.8425 2.49207 77.321 2.68453C76.8782 3.15241 76.5508 3.71722 76.3649 4.33396H76.3705Z" fill="black"/>
<path d="M70.0522 11.7648C71.4165 11.6921 96.3985 11.502 98.2213 10.9597C99.6247 10.7025 100.106 10.0539 100.033 8.63928C100.033 8.16961 100.111 2.78516 99.9658 1.82905C99.8372 0.649278 99.2054 0.0901461 97.8746 0.0174589C96.7564 -0.0887761 70.8406 0.313799 69.6161 0.576591C68.6209 0.772287 67.9387 1.13572 67.8045 2.25399C67.743 2.59506 68.0114 8.90766 68.045 9.52271C68.1232 10.8534 68.7886 11.6418 70.0522 11.7648ZM72.2329 11.3846C71.9036 11.3449 71.5874 11.2325 71.3069 11.0556C71.0265 10.8786 70.7889 10.6415 70.6114 10.3614C70.2172 9.68262 70.0143 8.90973 70.0243 8.12488C69.9628 7.17435 69.7839 3.65182 69.7615 2.80194C69.7615 2.45528 69.7615 1.30346 70.6114 0.889705C71.9253 0.755513 96.4041 0.392077 97.4497 0.425625C98.0088 0.425625 98.7637 0.470356 99.1886 0.900888C99.8148 1.53271 99.6136 2.57828 99.6527 8.58895C99.7757 10.121 99.1942 10.4565 97.7628 10.6633C96.4768 10.859 72.4565 11.3846 72.244 11.3846H72.2329ZM69.3813 2.09184C69.3086 2.59506 69.6049 7.40359 69.6329 8.041C69.7 9.62335 70.1529 10.7472 71.0475 11.3958H70.4884C69.1241 11.3958 68.5034 10.7416 68.4419 9.34937C68.4084 8.55541 68.1512 2.63979 68.2071 2.30431C68.3245 1.28669 69.0123 1.06304 69.9236 0.95121C69.6411 1.27275 69.4567 1.66863 69.3925 2.09184H69.3813Z" fill="black"/>
<path d="M82.5769 3.53996C82.7837 3.53996 89.2026 3.37781 89.1467 3.37781C89.1755 3.3717 89.2013 3.35586 89.2199 3.33296C89.2385 3.31006 89.2486 3.28148 89.2486 3.252C89.2486 3.22253 89.2385 3.19395 89.2199 3.17105C89.2013 3.14814 89.1755 3.13231 89.1467 3.1262C88.6714 3.1262 83.1304 3.03115 82.5657 3.1262C82.5226 3.1418 82.4855 3.17058 82.4597 3.20844C82.4339 3.2463 82.4207 3.29132 82.422 3.33711C82.4232 3.38291 82.4388 3.42715 82.4666 3.46356C82.4944 3.49997 82.533 3.5267 82.5769 3.53996ZM91.1148 5.29563C90.3096 5.37391 82.2246 5.09994 82.1687 5.5081C82.1687 5.58638 82.2414 5.64788 82.2973 5.65907C83.0018 5.74294 91.0868 5.56961 91.1428 5.56401C91.1604 5.56218 91.1775 5.55689 91.193 5.54845C91.2086 5.54001 91.2224 5.52859 91.2336 5.51483C91.2447 5.50107 91.2531 5.48525 91.2581 5.46826C91.2632 5.45128 91.2648 5.43347 91.263 5.41584C91.2611 5.39822 91.2558 5.38113 91.2474 5.36556C91.239 5.34998 91.2275 5.33621 91.2138 5.32505C91.2 5.31389 91.1842 5.30555 91.1672 5.3005C91.1502 5.29545 91.1324 5.2938 91.1148 5.29563ZM90.9527 7.4427C89.5716 7.4427 82.6104 7.40915 82.247 7.47066C82.2112 7.48013 82.1796 7.50117 82.157 7.5305C82.1344 7.55983 82.1222 7.5958 82.1222 7.6328C82.1222 7.66981 82.1344 7.70578 82.157 7.73511C82.1796 7.76444 82.2112 7.78548 82.247 7.79495C82.6328 7.85646 90.3879 7.67754 90.9582 7.66076C90.9828 7.65453 91.0046 7.64012 91.0199 7.6199C91.0352 7.59968 91.0432 7.57486 91.0425 7.5495C91.0419 7.52414 91.0327 7.49975 91.0163 7.48035C91 7.46094 90.9775 7.44766 90.9527 7.4427ZM11.9026 43.2607C15.6879 42.9532 17.6952 38.0775 14.7541 35.3713C14.6479 35.2763 14.8492 35.0638 11.7516 39.5425C8.00542 35.992 8.20671 36.1262 8.12284 36.1877C5.15944 39.1119 8.09488 43.5738 11.9026 43.2607Z" fill="black"/>
<path d="M11.4887 37.7085C11.5949 37.826 11.5446 37.8427 14.0775 33.571C14.0836 33.5615 14.0877 33.5509 14.0895 33.5398C14.0914 33.5287 14.0911 33.5173 14.0884 33.5063C14.0858 33.4954 14.081 33.485 14.0744 33.476C14.0677 33.4669 14.0592 33.4593 14.0495 33.4536C13.1563 32.9835 12.133 32.8213 11.1382 32.9922C10.1434 33.163 9.23285 33.6573 8.54768 34.3985C8.48058 34.4824 8.37994 34.3202 11.4887 37.7085ZM5.64578 58.4244C5.78919 58.4235 5.92912 58.3801 6.04795 58.2998C6.16679 58.2196 6.25922 58.1059 6.31362 57.9732C6.36801 57.8405 6.38193 57.6947 6.35364 57.5541C6.32534 57.4135 6.25608 57.2844 6.15459 57.1831C6.43416 56.7302 8.24574 53.75 8.77692 52.9449C8.91458 53.0086 9.06822 53.0293 9.21782 53.0043C9.36742 52.9794 9.50604 52.91 9.61562 52.8051L12.1988 54.7956C12.1567 54.9202 12.1492 55.054 12.1771 55.1825C12.205 55.3111 12.2672 55.4296 12.3572 55.5256C12.4472 55.6215 12.5615 55.6913 12.688 55.7274C12.8145 55.7634 12.9485 55.7645 13.0755 55.7305C13.2026 55.6964 13.318 55.6285 13.4096 55.534C13.5011 55.4395 13.5652 55.322 13.5952 55.1939C13.6251 55.0658 13.6198 54.932 13.5797 54.8067C13.5395 54.6814 13.4662 54.5694 13.3674 54.4825L14.2844 53.2748C14.4485 53.3499 14.6346 53.3617 14.8069 53.3081C14.9792 53.2544 15.1256 53.139 15.2181 52.984L17.8908 53.8898C17.8763 54.0101 17.8922 54.1321 17.9369 54.2446C17.9815 54.3572 18.0537 54.4569 18.1466 54.5345C18.2396 54.6121 18.3505 54.6653 18.4693 54.6891C18.5881 54.713 18.7109 54.7068 18.8267 54.6711C18.9424 54.6354 19.0474 54.5713 19.1321 54.4847C19.2168 54.3981 19.2785 54.2918 19.3116 54.1752C19.3448 54.0587 19.3482 53.9358 19.3217 53.8176C19.2953 53.6994 19.2397 53.5897 19.16 53.4984C19.3837 52.6989 21.3183 46.7889 21.5139 46.2297C21.7017 46.2134 21.8759 46.1252 22.0004 45.9837C22.5316 46.4031 24.1251 47.594 24.6395 47.9407C24.6101 48.0564 24.6097 48.1776 24.6383 48.2935C24.6668 48.4095 24.7235 48.5166 24.8033 48.6054C24.8831 48.6942 24.9836 48.762 25.0958 48.8028C25.208 48.8435 25.3286 48.856 25.4468 48.8392C25.565 48.8223 25.6772 48.7765 25.7736 48.706C25.8699 48.6354 25.9473 48.5422 25.9991 48.4346C26.0508 48.327 26.0753 48.2083 26.0702 48.089C26.0652 47.9697 26.0309 47.8534 25.9702 47.7506C27.4575 45.3798 27.5246 45.419 27.3681 45.3127C27.3386 45.2945 27.3034 45.2878 27.2693 45.294C27.2353 45.3002 27.2047 45.3188 27.1835 45.3463C26.9208 45.7265 25.6795 47.471 25.6795 47.471C25.5472 47.4059 25.3987 47.3812 25.2525 47.4001C25.1063 47.419 24.9689 47.4806 24.8576 47.5772C24.3376 47.2138 22.6881 46.034 22.1625 45.6259C22.185 45.4968 22.1722 45.3641 22.1254 45.2418C22.0787 45.1194 21.9997 45.012 21.897 44.9308C21.7942 44.8496 21.6714 44.7977 21.5415 44.7806C21.4117 44.7635 21.2796 44.7817 21.1593 44.8335C21.039 44.8852 20.9349 44.9685 20.858 45.0745C20.7811 45.1806 20.7343 45.3054 20.7225 45.4358C20.7107 45.5663 20.7344 45.6975 20.791 45.8156C20.8477 45.9337 20.9352 46.0343 21.0443 46.1067C20.5634 47.4151 19.1656 51.944 18.8077 53.2636C18.6734 53.2289 18.532 53.2326 18.3996 53.2741C18.2672 53.3156 18.1491 53.3933 18.0585 53.4984C17.4994 53.3083 15.822 52.7995 15.3132 52.6374C15.3132 52.4461 15.2372 52.2626 15.1019 52.1274C14.9666 51.9921 14.7832 51.9161 14.5919 51.9161C14.4006 51.9161 14.2171 51.9921 14.0819 52.1274C13.9466 52.2626 13.8706 52.4461 13.8706 52.6374C13.8718 52.7971 13.9248 52.9521 14.0216 53.0791L13.0207 54.326C12.9249 54.3049 12.8257 54.304 12.7294 54.3233C12.6332 54.3425 12.542 54.3815 12.4616 54.4378L9.79454 52.4193C9.82365 52.2462 9.78865 52.0685 9.6961 51.9194C9.60356 51.7702 9.45981 51.66 9.2918 51.6092C9.12379 51.5585 8.94304 51.5707 8.78341 51.6437C8.62378 51.7166 8.49624 51.8453 8.42467 52.0056C8.36905 52.1208 8.3464 52.2492 8.35923 52.3765C8.37206 52.5038 8.41986 52.625 8.49735 52.7268C7.97177 53.5152 6.06513 56.5625 5.79115 57.0042C5.6908 56.979 5.5862 56.9757 5.48445 56.9945C5.3827 57.0133 5.28618 57.0537 5.20145 57.1131C5.11672 57.1725 5.04576 57.2494 4.99339 57.3387C4.94102 57.4279 4.90846 57.5274 4.89792 57.6303C4.88738 57.7332 4.89912 57.8372 4.93233 57.9352C4.96553 58.0332 5.01943 58.1229 5.09037 58.1983C5.16131 58.2736 5.24763 58.3328 5.34346 58.3718C5.43929 58.4108 5.5424 58.4287 5.64578 58.4244ZM15.3747 60.4037C15.3332 60.4037 15.2933 60.4202 15.264 60.4496C15.2346 60.4789 15.2181 60.5188 15.2181 60.5603C15.2181 60.6018 15.2346 60.6416 15.264 60.671C15.2933 60.7003 15.3332 60.7168 15.3747 60.7168C16.3532 60.7168 27.8377 60.2695 28.2347 60.2639C28.2608 60.2581 28.2841 60.2436 28.3008 60.2228C28.3176 60.2019 28.3267 60.176 28.3267 60.1493C28.3267 60.1226 28.3176 60.0967 28.3008 60.0758C28.2841 60.055 28.2608 60.0405 28.2347 60.0347C26.6747 60.0403 16.3755 60.2919 15.3747 60.4037ZM20.2894 56.4059C20.325 56.4059 20.3592 56.3918 20.3843 56.3666C20.4095 56.3415 20.4236 56.3073 20.4236 56.2717C20.4236 56.2361 20.4095 56.202 20.3843 56.1768C20.3592 56.1517 20.325 56.1375 20.2894 56.1375C19.8477 56.1375 18.2486 56.0425 17.874 56.0593C17.8088 56.0593 17.7462 56.0852 17.7 56.1313C17.6539 56.1775 17.628 56.24 17.628 56.3053C17.628 56.3705 17.6539 56.4331 17.7 56.4792C17.7462 56.5254 17.8088 56.5513 17.874 56.5513C18.243 56.596 19.8254 56.4451 20.2894 56.4059ZM14.3123 57.1216H11.9025C11.8504 57.1241 11.7999 57.1405 11.7563 57.1691C11.7127 57.1978 11.6776 57.2377 11.6548 57.2846C11.6319 57.3315 11.622 57.3836 11.6263 57.4356C11.6305 57.4876 11.6487 57.5375 11.6788 57.5801C11.8298 57.8038 11.9472 57.6304 14.3235 57.4291C14.353 57.415 14.3777 57.3926 14.3947 57.3647C14.4116 57.3367 14.42 57.3044 14.4188 57.2717C14.4176 57.239 14.4069 57.2074 14.388 57.1808C14.3691 57.1541 14.3428 57.1335 14.3123 57.1216ZM4.77913 60.1074C4.89654 60.1074 6.5963 59.9229 6.97092 59.9061C7.01244 59.9061 7.05227 59.8896 7.08163 59.8602C7.11099 59.8309 7.12748 59.7911 7.12748 59.7495C7.12748 59.708 7.11099 59.6682 7.08163 59.6388C7.05227 59.6095 7.01244 59.593 6.97092 59.593C6.75286 59.593 4.86299 59.6713 4.73439 59.7328C4.70026 59.7533 4.67278 59.7833 4.65527 59.8191C4.63775 59.8549 4.63095 59.895 4.63568 59.9345C4.6404 59.9741 4.65645 60.0115 4.6819 60.0421C4.70735 60.0728 4.74111 60.0954 4.77913 60.1074Z" fill="black"/>
<path d="M24.5109 50.412H24.6004C26.9767 50.1995 26.8928 50.3617 26.9935 50.2498C27.0121 50.2279 27.0243 50.2013 27.0287 50.1729C27.0332 50.1445 27.0297 50.1154 27.0187 50.0889C27.0078 50.0623 26.9897 50.0393 26.9665 50.0223C26.9433 50.0053 26.9159 49.9951 26.8873 49.9926C26.0541 49.9926 25.2714 49.9199 24.5221 49.9535C24.2034 49.9591 24.2314 50.412 24.5109 50.412ZM12.0088 45.5308C11.948 45.5308 11.8896 45.5549 11.8467 45.5979C11.8037 45.6409 11.7795 45.6992 11.7795 45.76C11.7795 45.8208 11.8037 45.8791 11.8467 45.9221C11.8896 45.9651 11.948 45.9892 12.0088 45.9892C12.8083 45.9892 15.9227 45.7041 16.6775 45.6258C16.7133 45.619 16.7455 45.5999 16.7687 45.5718C16.7919 45.5437 16.8046 45.5085 16.8046 45.4721C16.8046 45.4356 16.7919 45.4004 16.7687 45.3723C16.7455 45.3442 16.7133 45.3251 16.6775 45.3183C15.9003 45.3798 12.7804 45.4637 12.0088 45.5308ZM11.6285 46.8391C11.5836 46.8503 11.5442 46.8775 11.5179 46.9156C11.4915 46.9537 11.48 47.0002 11.4855 47.0462C11.491 47.0922 11.5131 47.1346 11.5477 47.1655C11.5823 47.1963 11.6269 47.2135 11.6733 47.2137C12.5567 47.2137 16.0233 46.9006 16.8956 46.895C16.9341 46.895 16.9711 46.8797 16.9984 46.8525C17.0256 46.8252 17.0409 46.7882 17.0409 46.7497C17.0409 46.7111 17.0256 46.6741 16.9984 46.6469C16.9711 46.6196 16.9341 46.6043 16.8956 46.6043C15.1366 46.5656 13.3771 46.644 11.6285 46.8391ZM16.4483 47.7337C14.985 47.7127 13.5217 47.7705 12.0647 47.9071C11.7963 47.9406 11.7851 48.3488 12.0647 48.3488C12.5623 48.3488 15.2797 48.0692 16.4538 48.0245C16.4729 48.0241 16.4918 48.02 16.5093 48.0124C16.5268 48.0047 16.5426 47.9937 16.5558 47.9799C16.5691 47.9662 16.5795 47.9499 16.5864 47.9322C16.5934 47.9144 16.5968 47.8954 16.5964 47.8763C16.5961 47.8572 16.5919 47.8384 16.5843 47.8209C16.5766 47.8034 16.5656 47.7876 16.5519 47.7743C16.5381 47.7611 16.5219 47.7507 16.5041 47.7437C16.4863 47.7368 16.4674 47.7334 16.4483 47.7337ZM18.2878 35.69C18.5618 35.69 21.3518 35.3993 21.8998 35.3601C21.9384 35.3601 21.9753 35.3448 22.0026 35.3176C22.0299 35.2903 22.0452 35.2533 22.0452 35.2148C22.0452 35.1762 22.0299 35.1392 22.0026 35.112C21.9753 35.0847 21.9384 35.0694 21.8998 35.0694C21.6258 35.0694 18.6345 35.1589 18.3046 35.1812C17.9747 35.2036 17.9747 35.69 18.2878 35.69ZM18.8637 36.8195C19.7415 36.8195 23.1634 36.4952 24.0301 36.4393C24.0617 36.4329 24.0901 36.4157 24.1105 36.3907C24.1309 36.3658 24.1421 36.3345 24.1421 36.3023C24.1421 36.27 24.1309 36.2388 24.1105 36.2138C24.0901 36.1889 24.0617 36.1717 24.0301 36.1653C23.1578 36.2044 19.7136 36.2212 18.8581 36.3107C18.7972 36.3204 18.7418 36.3517 18.702 36.3988C18.6623 36.4459 18.6408 36.5058 18.6414 36.5675C18.6421 36.6292 18.6649 36.6885 18.7057 36.7348C18.7465 36.7811 18.8026 36.8111 18.8637 36.8195Z" fill="black"/>
</svg>
